<?xml version="1.0" encoding="UTF-8" standalone="no"?>
<!-- Created with Inkscape (http://www.inkscape.org/) -->
<svg
   xmlns:svg="http://www.w3.org/2000/svg"
   xmlns="http://www.w3.org/2000/svg"
   version="1.0"
   width="1008"
   height="504"
   id="svg2488">
  <defs
     id="defs2490" />
  <g
     id="layer1">
    <g
       transform="translate(764.11308,-46.408752)"
       id="g2524">
      <g
         transform="translate(-1.6317841e-6,560.00002)"
         id="g2582">
        <path
           d="M 203.5746,-93.525513 C 167.90526,-95.79785 138.73986,-102.56813 113.75,-114.37685 C 101.16103,-120.32564 102.10891,-117.17521 105.31496,-142.41184 L 107.53815,-159.91183 L 105.23234,-185.41183 C 103.7249,-202.08253 102.49491,-211.25809 101.67997,-211.91184 C 100.99436,-212.46185 97.78603,-217.63684 94.55034,-223.41184 C 85.991591,-238.68736 75.87475,-253.93978 63.37555,-270.41184 C 48.614441,-289.86477 44.46341,-296.1461 39.81811,-306.05892 C 30.521649,-325.89704 30.76554,-344.39667 40.58584,-364.29144 C 44.153442,-371.519 46.85441,-375.32575 52.35786,-380.88302 C 76.538539,-405.30012 113.315,-407.84285 153.1233,-387.84991 C 181.49874,-373.59891 201.37849,-357.23056 222.88317,-330.41184 C 224.38201,-328.54263 223.54095,-332.075 219.54977,-344.41184 C 211.90541,-368.04077 210.54962,-375.22883 210.59052,-391.91184 C 210.61975,-403.83638 210.9615,-406.87545 212.89577,-412.41184 C 218.04365,-427.14641 227.60135,-438.82309 238.76895,-444.02121 L 244.97919,-446.91183 L 244.98959,-466.66183 L 245,-486.41183 L 228.5,-486.41183 L 212,-486.41183 L 212,-493.91183 L 212,-501.41183 L 228.5,-501.41183 L 245,-501.41183 L 245,-512.41187 L 245,-523.41187 L 252.5,-523.41187 L 260,-523.41187 L 260,-512.41187 L 260,-501.41183 L 276,-501.41183 L 292,-501.41183 L 292,-493.91183 L 292,-486.41183 L 276,-486.41183 L 260,-486.41183 L 260,-466.52917 L 260,-446.64655 L 265.75,-443.84323 C 276.56017,-438.5729 286.09309,-426.75504 291.10423,-412.41184 C 293.03849,-406.87546 293.38025,-403.83637 293.40948,-391.91184 C 293.45038,-375.22884 292.09459,-368.04076 284.45023,-344.41184 C 280.45906,-332.07501 279.61799,-328.54262 281.11683,-330.41184 C 302.62152,-357.23057 322.50125,-373.59891 350.8767,-387.84991 C 390.68499,-407.84285 427.46146,-405.30013 451.64214,-380.88302 C 457.14558,-375.32574 459.84656,-371.519 463.41416,-364.29144 C 473.23447,-344.39667 473.47835,-325.89705 464.18189,-306.05892 C 459.5366,-296.14609 455.38556,-289.86476 440.62445,-270.41184 C 428.12525,-253.93979 418.00841,-238.68735 409.44966,-223.41184 C 406.21398,-217.63685 403.00564,-212.46184 402.32003,-211.91184 C 401.50508,-211.2581 400.2751,-202.08253 398.76766,-185.41184 L 396.46185,-159.91183 L 398.68503,-142.41183 C 401.88256,-117.24236 402.68548,-120.21957 391.25,-114.84297 C 377.20343,-108.23871 370.17429,-105.6998 355.35558,-101.878 C 338.99754,-97.659212 319.44199,-94.78541 298,-93.4493 C 279.01743,-92.266437 222.62408,-92.31195 203.5746,-93.52551 L 203.5746,-93.525513 z"
           transform="translate(-267.35463,46.40875)"
           id="path2439"
           style="fill:#000000" />
        <path
           d="M 253,-270.1087 C 253,-271.04198 259.53047,-291.22729 267.51215,-314.96495 C 283.24143,-361.74409 285.65013,-370.68881 286.61733,-385.91184 C 287.84899,-405.2973 283.19491,-420.3761 272.78489,-430.72775 C 265.44589,-438.0256 261.23559,-439.8794 252,-439.8794 C 242.76442,-439.87941 238.55412,-438.0256 231.21511,-430.72775 C 220.80509,-420.3761 216.15101,-405.29729 217.38267,-385.91184 C 218.34987,-370.68882 220.75858,-361.74408 236.48785,-314.96495 C 244.46953,-291.2273 251,-271.04198 251,-270.10871 C 251.00001,-269.17544 251.45,-268.41184 252,-268.41184 C 252.55001,-268.41185 253,-269.17543 253,-270.10871 L 253,-270.1087 z"
           transform="translate(-267.35463,46.40875)"
           id="path2578"
           style="fill:#ffffff" />
        <path
           d="M 130.18236,-210.92567 C 151.83738,-217.10318 178.07425,-222.06927 205,-225.08711 C 226.67908,-227.5169 277.32093,-227.5169 299,-225.08711 C 325.92576,-222.06927 352.16262,-217.10318 373.81764,-210.92568 C 380.59235,-208.99308 386.97032,-207.41184 387.99092,-207.41184 C 391.54619,-207.41185 395.95456,-212.59497 403.13008,-225.21162 C 413.34392,-243.17051 422.91733,-257.66577 435.62445,-274.41184 C 449.97986,-293.33012 454.58695,-300.22425 458.20231,-308.19775 C 473.42922,-341.77997 457.53472,-379.76392 423.5,-391.12776 C 416.33635,-393.51964 414.03638,-393.79706 401.5,-393.78144 C 389.64219,-393.76669 386.03508,-393.37018 377.92623,-391.19023 C 351.85727,-384.18195 326.26082,-368.6019 303.52667,-345.90474 C 290.30398,-332.70355 280.74395,-319.97295 273.09185,-305.37623 C 267.57474,-294.8521 262.96969,-278.7414 258.82276,-255.45607 L 256.5,-242.41354 L 252,-242.41354 L 247.5,-242.41354 L 245.17725,-255.45607 C 241.03031,-278.7414 236.42526,-294.85209 230.90815,-305.37623 C 223.25605,-319.97296 213.69602,-332.70356 200.47333,-345.90474 C 177.73919,-368.60189 152.14272,-384.18194 126.07377,-391.19023 C 117.96492,-393.37019 114.35781,-393.76668 102.5,-393.78144 C 89.96362,-393.79707 87.66365,-393.51963 80.5,-391.12776 C 46.46528,-379.76393 30.57079,-341.77997 45.79769,-308.19775 C 49.413049,-300.22425 54.02014,-293.33011 68.37555,-274.41184 C 81.082671,-257.66578 90.65609,-243.17051 100.86992,-225.21162 C 108.04544,-212.59497 112.45382,-207.41184 116.00908,-207.41184 C 117.02968,-207.41185 123.40766,-208.99307 130.18236,-210.92568 L 130.18236,-210.92567 z"
           transform="translate(-267.35463,46.40875)"
           id="path2572"
           style="fill:#ffffff" />
        <path
           d="M 132.9234,-156.33952 C 156.20442,-164.90625 183.46861,-171.48964 210.5,-175.07167 C 220.20352,-176.35752 230.72693,-176.79435 252,-176.79435 C 273.27308,-176.79434 283.79649,-176.35752 293.5,-175.07167 C 320.67443,-171.47069 347.78697,-164.90942 371.4058,-156.21839 C 383.51779,-151.76155 386.24052,-151.80455 388.87283,-156.49434 C 390.84913,-160.01537 389.62627,-164.06038 385.90053,-166.32614 C 381.2833,-169.13403 353.48947,-178.10938 337.60345,-181.9225 C 306.08244,-189.48849 285.45801,-191.88995 252,-191.88995 C 212.30461,-191.88995 180.54654,-187.16086 144.22445,-175.8411 C 119.34243,-168.08664 114,-165.22363 114,-159.64388 C 114,-156.95427 118.13243,-152.41184 120.57929,-152.41184 C 121.4979,-152.41185 127.05275,-154.1793 132.9234,-156.33953 L 132.9234,-156.33952 z"
           transform="translate(-267.35463,46.40875)"
           id="path2570"
           style="fill:#ffffff" />
        <path
           d="M 126.11168,-116.30199 C 153.77177,-128.81576 192.53239,-138.50067 226.30447,-141.33661 C 276.53559,-145.55467 329.9979,-136.8563 376.43857,-116.90963 L 384.84436,-113.29928 L 389.92218,-115.8724 C 400.916,-121.44339 394.64608,-126.67474 363.5,-137.9179 C 329.99814,-150.01146 287.74325,-157.39121 252,-157.39121 C 216.25676,-157.39122 174.00187,-150.01145 140.5,-137.9179 C 109.6204,-126.77094 103.17347,-121.48316 113.75,-115.97757 C 116.3625,-114.61764 118.77526,-113.48401 119.11168,-113.4584 C 119.44811,-113.43279 122.59811,-114.71241 126.11168,-116.30199 z"
           transform="translate(-267.35463,46.40875)"
           id="path2568"
           style="fill:#ffffff" />
        <path
           d="M 243.68834,-318.16183 C 234.94838,-344.15323 230.70548,-360.15781 228.37848,-375.91184 C 224.90888,-399.40151 229.59231,-417.48129 241.12351,-425.11228 C 244.69109,-427.47319 246.3953,-427.91184 252,-427.91184 C 257.60471,-427.91185 259.30891,-427.47318 262.87649,-425.11228 C 277.9055,-415.16655 280.59887,-391.16688 270.97919,-352.91184 C 267.6389,-339.6283 253.04424,-295.41184 252,-295.41184 C 251.6361,-295.41185 247.89584,-305.64934 243.68834,-318.16184 L 243.68834,-318.16183 z"
           transform="translate(-267.35463,46.40875)"
           id="path2580"
           style="fill:#000000" />
        <path
           d="M 385,-226.54491 C 383.625,-227.09836 375.75,-229.30455 367.5,-231.44756 C 338.805,-238.90132 310.71128,-243.02973 281.46681,-244.09025 L 264.43362,-244.70795 L 265.15048,-252.21301 C 269.1715,-294.30922 295.64832,-333.23204 340.89821,-363.56759 C 380.47623,-390.10071 415.02851,-393.50608 437.60751,-373.09895 C 450.00217,-361.89653 455.61075,-341.39532 451.53819,-322.17775 C 448.60537,-308.3383 442.79166,-298.34779 419.79465,-267.62825 C 413.50184,-259.2223 404.58485,-246.28478 399.97911,-238.87825 C 391.17435,-224.71922 390.63629,-224.27621 385,-226.5449 L 385,-226.54491 z"
           transform="translate(-267.35463,46.40875)"
           id="path2576"
           style="fill:#000000" />
        <path
           d="M 104.06905,-238.8008 C 99.43682,-246.24993 90.49816,-259.22228 84.20535,-267.62825 C 66.393937,-291.42085 62.24732,-297.60721 57.91667,-306.84858 C 48.835278,-326.22777 48.75074,-344.63001 57.66515,-361.59417 C 65.60572,-376.70509 82.96504,-386.41184 102.04852,-386.41184 C 124.8,-386.41185 154.37106,-372.60496 183.08441,-348.57577 C 216.34483,-320.74129 235.46347,-287.6617 238.86365,-252.06497 L 239.59467,-244.41183 L 229.54735,-244.40152 C 201.33196,-244.37255 161.10151,-238.45078 130.5,-229.82212 C 123.35,-227.80606 116.37304,-225.95413 114.99564,-225.70674 C 112.72006,-225.29804 111.72185,-226.49426 104.06905,-238.8008 z"
           transform="translate(-267.35463,46.40875)"
           id="path2574"
           style="fill:#000000" />
      </g>
    </g>
    <g
       transform="translate(-200.51752,-9.626097)"
       id="g2562">
      <path
         d="M 203.30591,470.98099 C 165.48764,468.60442 130.86518,459.99732 104.76136,446.48292 C 97.44679,442.69606 95.09189,440.96166 94.357,438.82011 C 93.687058,436.86785 94.13039,430.08946 95.86128,415.82011 L 98.315437,395.58817 L 95.94297,369.08817 L 93.570503,342.58817 L 87.551376,332.08817 C 79.26368,317.63076 69.35171,302.9647 57.47634,287.58818 C 40.545719,265.66597 34.87352,256.18739 30.24814,242.08818 C 27.85405,234.79046 27.44876,231.89084 27.38277,221.58818 C 27.319159,211.65692 27.70984,208.29522 29.64894,202.08818 C 36.843411,179.05885 52.38338,162.07504 73.16126,154.53307 C 92.699927,147.44092 111.07005,147.48808 133.97685,154.68922 C 156.24273,161.68887 184.10278,178.58122 204.44983,197.419 L 210.3712,202.90114 L 208.16141,194.1358 C 203.59467,176.02146 202.74007,162.16392 205.39655,149.30308 C 208.34713,135.0184 215.19275,122.25397 224.01852,114.58031 C 228.18791,110.95519 240.95651,104.08817 243.5277,104.08817 C 244.51663,104.08817 244.80591,100.1275 244.80591,86.588171 L 244.80591,69.088173 L 228.30591,69.088173 L 211.80591,69.088173 L 211.80591,61.588173 L 211.80591,54.088173 L 228.30591,54.088173 L 244.80591,54.088173 L 244.80591,43.088173 L 244.80591,32.088173 L 252.30591,32.088173 L 259.80591,32.088173 L 259.80591,43.088173 L 259.80591,54.088173 L 275.80591,54.088173 L 291.80591,54.088173 L 291.80591,61.588173 L 291.80591,69.088173 L 275.80591,69.088173 L 259.80591,69.088173 L 259.80701,86.338173 L 259.80807,103.58817 L 267.05701,106.85076 C 283.36544,114.19087 293.93806,128.59579 298.21527,149.30308 C 300.87175,162.16392 300.01715,176.02146 295.45042,194.1358 L 293.24063,202.90114 L 299.16199,197.41901 C 313.92829,183.74801 333.71213,170.31835 351.3059,162.02271 C 375.23869,150.73813 397.8227,146.80211 416.5012,150.66026 C 433.66321,154.20517 444.4502,159.81105 455.809,171.08818 C 472.19371,187.35495 479.8376,211.99775 475.3617,234.12333 C 472.06931,250.39862 465.3189,262.75692 446.1578,287.58818 C 434.26569,302.99942 424.3406,317.67811 416.0672,332.09088 L 410.04129,342.58817 L 407.66879,369.08817 L 405.29639,395.58817 L 407.75049,415.8201 C 409.4814,430.08946 409.9248,436.86784 409.2548,438.82011 C 408.51991,440.96167 406.165,442.69605 398.8505,446.48292 C 371.90281,460.43418 338.72529,468.5009 297.80591,471.05071 C 278.87076,472.23062 222.52991,472.18905 203.30591,470.98098 L 203.30591,470.98099 z"
         transform="translate(213.41083,9.6260986)"
         id="path2443"
         style="fill:#000000" />
      <path
         d="M 253.09496,266.3382 C 253.38223,265.37567 257.29341,254.01318 261.78648,241.08818 C 278.74116,192.31539 280.34271,186.4844 281.43605,169.54772 C 282.54944,152.3005 279.23592,140.40251 270.581,130.57 C 265.55615,124.86146 258.10795,121.10771 251.80591,121.10771 C 245.50387,121.10771 238.05568,124.86146 233.03082,130.57 C 224.3759,140.40251 221.06239,152.30049 222.17577,169.54772 C 223.26911,186.48441 224.87067,192.31539 241.82534,241.08818 C 246.31842,254.01318 250.22959,265.37567 250.51686,266.33818 C 250.80413,267.30066 251.3842,268.08818 251.80591,268.08818 C 252.22762,268.08817 252.80769,267.30067 253.09496,266.33818 L 253.09496,266.3382 z"
         transform="translate(213.41083,9.6260986)"
         id="path2397"
         style="fill:#ffffff" />
      <path
         d="M 401.72531,322.02051 C 408.1993,310.28814 421.5886,290.54896 433.8992,274.58818 C 452.5998,250.34267 457.5395,240.41357 458.4982,225.1423 C 459.5592,208.24074 454.5428,194.60117 443.0562,183.15576 C 431.11429,171.25656 417.1968,166.42067 397.8059,167.43266 C 379.68659,168.37829 363.5734,173.93411 342.9399,186.35039 C 309.496,206.47541 279.30645,241.42167 271.12765,269.47748 C 269.15327,276.25017 264.72837,296.3128 262.47414,308.71262 L 261.90613,311.83707 L 275.10602,312.50052 C 313.50869,314.43081 362.8127,321.40588 388.3059,328.51502 C 396.78289,330.87896 396.857,330.84312 401.7253,322.02051 L 401.72531,322.02051 z"
         transform="translate(213.41083,9.6260986)"
         id="path2395"
         style="fill:#ffffff" />
      <path
         d="M 125.30591,326.22357 C 154.56764,319.53248 188.38717,314.85123 220.80591,313.00459 C 232.08091,312.36236 241.40657,311.75527 241.52959,311.65551 C 242.0368,311.24426 234.70059,276.97636 232.49994,269.47748 C 224.24626,241.3524 194.10355,206.46802 160.67192,186.35039 C 140.03847,173.93412 123.92523,168.37829 105.80591,167.43266 C 86.415022,166.42067 72.49757,171.25656 60.5556,183.15576 C 49.060791,194.60942 44.02768,208.29981 45.13969,225.08818 C 46.16779,240.61002 51.32625,250.89141 70.48436,275.60302 C 82.16818,290.6737 95.46651,310.35695 101.85322,322.033 C 107.00705,331.45512 104.43614,330.99573 125.30591,326.22358 L 125.30591,326.22357 z"
         transform="translate(213.41083,9.6260986)"
         id="path2393"
         style="fill:#ffffff" />
      <path
         d="M 156.67171,372.63257 C 228.55919,356.64449 304.6193,359.16889 375.5286,379.89633 L 388.48279,383.68298 L 389.69629,368.63559 C 390.3638,360.3595 391.1469,352.20398 391.4365,350.51219 L 391.9632,347.43622 L 377.63449,344.18527 C 295.62431,325.57843 207.98751,325.57843 125.97727,344.18526 L 111.64862,347.43622 L 112.1753,350.51218 C 112.46497,352.20398 113.24805,360.3595 113.91548,368.63558 L 115.129,383.68298 L 128.08324,379.89633 C 135.20808,377.81368 148.07289,374.54499 156.6717,372.63258 L 156.67171,372.63257 z"
         transform="translate(213.41083,9.6260986)"
         id="path2391"
         style="fill:#ffffff" />
      <path
         d="M 153.30591,409.07761 C 190.03859,399.55616 213.07006,396.6504 251.80591,396.6504 C 273.00396,396.65041 284.02094,397.10559 294.80591,398.42705 C 322.44041,401.81303 353.2223,408.81044 378.0686,417.35454 C 387.9836,420.76411 390.728,421.39135 390.3687,420.16576 C 390.11439,419.29807 389.6012,415.33317 389.2285,411.35484 C 388.85581,407.37652 388.0457,403.45792 387.4283,402.64687 C 386.04709,400.83226 363.7672,394.27467 345.1449,390.20168 C 274.94159,374.84714 199.35409,377.31712 130.96695,397.20036 C 123.45338,399.3849 116.80082,401.83583 116.18348,402.64687 C 115.56614,403.45791 114.75607,407.37651 114.38333,411.35484 C 114.01058,415.33318 113.49747,419.29808 113.24309,420.16576 C 112.88378,421.39134 115.62821,420.76412 125.54324,417.35454 C 132.56271,414.94069 145.05591,411.21608 153.30591,409.0776 L 153.30591,409.07761 z"
         transform="translate(213.41083,9.6260986)"
         id="path2389"
         style="fill:#ffffff" />
      <path
         d="M 297.80591,453.05072 C 317.2115,451.84149 337.34354,449.06328 351.3059,445.66774 C 363.76739,442.63721 379.2367,437.1016 378.1333,436.06771 C 376.9381,434.94777 356.9917,428.66744 345.3059,425.73167 C 312.40461,417.46603 288.64751,414.6504 251.80591,414.6504 C 214.96431,414.65041 191.2072,417.46602 158.30591,425.73167 C 146.62017,428.66745 126.67372,434.94778 125.4785,436.06771 C 124.37596,437.10079 139.83595,442.63452 152.30591,445.67027 C 165.37835,448.85272 187.05206,451.95956 203.30591,452.98098 C 222.52991,454.18905 278.87076,454.23063 297.80591,453.05071 L 297.80591,453.05072 z"
         transform="translate(213.41083,9.6260986)"
         id="path2387"
         style="fill:#ffffff" />
    </g>
  </g>
</svg>
