<?xml version="1.0" encoding="UTF-8" standalone="no"?>
<!-- Created with Inkscape (http://www.inkscape.org/) -->
<svg
   xmlns:svg="http://www.w3.org/2000/svg"
   xmlns="http://www.w3.org/2000/svg"
   version="1.0"
   width="1008"
   height="504"
   id="svg2">
  <defs
     id="defs4" />
  <g
     id="layer1">
    <g
       transform="translate(-75.368052,-269.79076)"
       id="g2397">
      <path
         d="M 157.19107,457.85678 C 155.72714,444.18679 158.53976,428.7987 164.75022,416.5 C 169.87454,406.35223 176.86399,398.12467 198.7309,376.5 C 211.70096,363.67363 222.58104,351.97432 225.70021,347.5 C 235.84302,332.95055 243.60182,314.95809 247.36142,297.26818 C 249.2886,288.20032 249.88137,263.46678 248.41717,253.21655 L 247.59103,247.43311 L 241.41718,251.82013 C 229.90977,259.99708 218.3028,266.8222 197.5936,277.58924 C 158.02892,298.15955 151.27523,304.25908 136.32017,332.92778 C 127.9625,348.94935 123.1698,356.07438 117.23869,361.29516 C 112.46607,365.49617 105.4939,368.5 100.51551,368.5 C 93.950799,368.5 87.75459,362.31275 87.74704,355.75 L 87.743309,352.5 L 82.292526,352.5 C 74.20808,352.5 67.05508,350.70338 59.51887,346.77995 C 38.950049,336.0716 31.78564,313.07746 40.71436,286.42701 C 44.985421,273.67877 49.06747,266.24356 64.55654,243 C 80.653879,218.84365 85.60006,209.96368 89.90029,197.5 C 93.118749,188.1717 93.17896,187.67468 93.23143,170 C 93.29833,147.468 93.17229,147.74886 111.18235,130 C 126.23544,115.16522 132.74331,106.13683 132.74331,100.08842 C 132.7433,97.927873 131.81657,84.95398 130.68389,71.25754 C 129.55122,57.561102 128.76371,45.25881 128.93389,43.91912 C 129.226,41.619669 130.95636,42.51182 159.84589,59.8569 L 190.44846,78.230476 L 208.64024,58.865238 C 218.64571,48.21436 227.17624,39.5 227.59697,39.5 C 228.01769,39.5 233.83977,51.5375 240.53491,66.25 C 247.23006,80.9625 253.08218,92.9154 253.53964,92.81199 C 260.26593,91.291541 274.46752,90.34635 283.74331,90.80179 C 319.19836,92.542612 349.63468,106.2306 375.24331,131.95169 C 398.8867,155.69893 414.3131,183.10052 429.31606,228 C 450.30975,290.82823 464.03886,370.81121 466.40086,444.04845 L 467.06046,464.5 L 312.48151,464.5 L 157.9025,464.5 L 157.19107,457.85678 z"
         transform="translate(572.76764,269.79076)"
         id="path2396"
         style="fill:#000000" />
      <path
         d="M 126.71787,187.20863 C 133.1463,184.03157 137.00938,181.20707 142.71787,175.51017 C 149.63334,168.60873 157.74331,156.86262 157.74331,153.748 C 157.7433,150.40128 148.39282,149.56742 142.23473,152.36498 C 136.74176,154.8604 133.16056,159.24084 123.95266,174.72725 C 112.70667,193.64144 113.08674,192.8234 115.90748,192.04308 C 117.19219,191.68769 122.05686,189.51218 126.71787,187.20863 z"
         transform="translate(572.76764,269.79076)"
         id="path2388"
         style="fill:#ffffff" />
      <path
         d="M 76.493179,304.54321 C 77.73075,302.70677 78.74331,300.12343 78.74331,298.80246 C 78.743311,293.11617 73.17068,287.49459 67.54297,287.50374 C 63.191671,287.5108 58.74246,291.26016 56.01453,297.21875 C 53.9536,301.72042 53.32172,304.93516 52.9401,312.86021 L 52.459759,322.83545 L 63.35141,315.3588 C 69.34181,311.24665 75.25561,306.37963 76.49318,304.5432 L 76.493179,304.54321 z"
         transform="translate(572.76764,269.79076)"
         id="path2386"
         style="fill:#ffffff" />
      <path
         d="M 458.38177,454.95245 C 460.88966,452.44459 460.91906,452.23831 460.27426,441.70246 C 456.62946,382.15204 450.26796,336.41494 438.13116,282.5 C 427.84986,236.82766 417.34543,205.15878 403.63476,178.5 C 394.60268,160.9382 385.61846,148.36319 373.25147,135.97327 C 353.97063,116.65666 333.1908,105.23071 306.66209,99.35855 C 288.13196,95.256899 253.18262,96.64714 247.75716,101.70173 C 244.81346,104.44419 245.3267,110.1201 248.74831,112.66299 C 251.12909,114.43234 251.74893,114.44996 261.24831,113.01822 C 298.67533,107.37727 333.28446,118.23552 360.8941,144.28106 C 387.95571,169.8096 406.94296,212.58752 423.13119,284.5 C 434.85635,336.58648 441.30086,381.69405 444.77586,435.99963 C 445.74017,451.0683 446.10386,453.25487 447.97786,455.24963 C 450.83465,458.29059 455.16736,458.16683 458.38176,454.95246 L 458.38177,454.95245 z"
         transform="translate(572.76764,269.79076)"
         id="path2384"
         style="fill:#ffffff" />
    </g>
    <g
       transform="translate(282.86214,-489.51904)"
       id="g2417">
      <path
         d="M 155.20596,472.75244 C 147.13061,468.7204 145.92946,444.9437 152.78315,424.793 C 158.64052,407.57159 165.3996,398.47162 191.23793,373.01996 C 214.51589,350.09033 220.71671,342.54245 227.96045,328.31974 C 236.60545,311.34574 240.01483,297.91858 240.92285,277.26996 C 241.24331,269.98246 241.26477,264.01996 240.97052,264.01996 C 240.67627,264.01996 235.77137,266.87098 230.07074,270.35556 C 224.37011,273.84015 211.53596,280.83921 201.55041,285.90904 C 163.65142,305.15099 157.70128,310.80052 140.79138,343.59837 C 137.64989,349.69151 133.0657,357.24268 130.6043,360.37876 C 122.71771,370.42711 110.0405,378.01996 101.15019,378.01996 C 97.355798,378.01996 90.40389,375.4083 86.72115,372.59934 C 85.003957,371.28959 82.78697,368.41722 81.7945,366.21631 C 80.160768,362.59334 79.55073,362.14993 75.34799,361.5306 C 46.642228,357.3004 26.28452,332.32655 28.54121,304.11029 C 29.99211,285.96931 38.15482,267.83335 58.68287,237.14142 C 72.731971,216.13631 78.44159,205.94971 82.35861,194.90128 C 84.389038,189.17419 84.62534,186.6233 84.66347,170.01996 L 84.705963,151.51996 L 87.945137,144.68082 C 90.64384,138.98283 93.48399,135.56227 104.96669,124.18082 C 112.547,116.66735 120.0536,108.58505 121.64803,106.22016 L 124.54698,101.92037 L 122.35243,74.220169 C 119.32742,36.03771 119.31967,36.13701 125.52774,33.52671 C 129.75652,31.748639 129.55204,31.65003 161.52252,50.88546 C 176.27161,59.75943 188.68138,67.01996 189.09977,67.01996 C 189.51815,67.019962 197.41928,58.92983 206.65783,49.0419 C 220.5779,34.143379 224.04878,30.95248 226.92045,30.41375 C 233.0268,29.26819 234.47448,31.31256 246.90358,58.63321 L 258.29666,83.676537 L 264.50131,82.767982 C 273.41,81.46346 295.10035,82.61364 306.36453,84.98788 C 326.81806,89.299033 347.12879,98.09364 363.57109,109.7585 C 374.54871,117.54649 392.22874,135.4277 400.41334,147.01996 C 418.09868,172.06857 430.91623,200.10426 442.66558,239.4378 C 462.84046,306.97764 475.26885,385.96007 475.59949,448.73296 C 475.70361,468.50051 475.65576,468.99637 473.42826,471.23296 L 471.15057,473.51996 L 314.42825,473.76031 C 190.77898,473.94995 157.17839,473.73726 155.20596,472.75243 L 155.20596,472.75244 z"
         transform="translate(-267.6926,489.51905)"
         id="path2452"
         style="fill:#000000" />
      <path
         d="M 155.79091,67.8592 C 146.94419,62.54578 139.57925,58.32248 139.42439,58.4741 C 139.26953,58.625722 139.68086,65.9448 140.33847,74.73872 L 141.53412,90.727676 L 156.70499,84.123817 L 171.87585,77.519958 L 155.79091,67.8592 z"
         transform="translate(-267.6926,489.51905)"
         id="path2390"
         style="fill:#ffffff" />
      <path
         d="M 458.84439,455.47241 C 461.73176,452.58506 461.73112,452.46078 458.6248,413.01996 C 452.82163,339.33725 434.8525,252.62798 415.00203,202.51996 C 409.18851,187.84507 398.10736,166.86804 390.43831,156.01996 C 373.97659,132.73442 349.50834,113.66501 324.62474,104.72797 C 309.69546,99.366064 298.13706,97.51258 280.20596,97.60508 C 269.48868,97.66036 261.08989,98.23383 256.24146,99.24138 C 252.13598,100.09453 248.25436,100.59203 247.61562,100.34692 C 246.97689,100.10182 242.94531,92.16548 238.65657,82.71062 C 234.36782,73.255763 229.74097,63.07447 228.37466,60.08553 L 225.89047,54.6511 L 210.29822,70.75264 L 194.70595,86.854179 L 167.54065,98.544601 L 140.37534,110.23501 L 133.8251,119.00661 C 130.22247,123.83099 122.7552,131.94871 117.23117,137.046 C 102.4008,150.73067 102.72048,149.98666 102.63404,171.01996 C 102.57215,186.08206 102.25126,189.56477 100.33064,196.01996 C 96.544327,208.74566 88.11017,224.64135 73.80094,246.01996 C 58.104319,269.47138 49.93767,285.06312 47.6056,296.03198 C 45.623552,305.35454 46.20716,316.9995 48.96428,323.14218 C 53.831741,333.98655 65.79529,342.58995 77.53155,343.6859 L 83.952751,344.28552 L 90.650879,335.40274 C 94.33485,330.51721 98.32932,325.97341 99.52748,325.3054 C 104.37285,322.60397 109.58769,324.3199 111.68397,329.30549 C 113.44792,333.5007 112.57023,335.52192 104.07524,346.8277 C 100.22871,351.94695 97.22578,356.89695 97.40207,357.8277 C 97.982191,360.89053 104.19641,360.5339 108.83825,357.17137 C 115.26491,352.51593 119.55051,346.51329 128.26743,329.95789 C 132.73812,321.46703 138.35095,311.77754 140.74037,308.42568 C 149.91381,295.55727 163.74598,285.53876 192.55041,270.90012 C 220.88953,256.49795 245.95268,240.51531 253.34912,232.1291 C 262.07024,222.24095 265.76697,210.70816 264.90225,196.08648 C 264.25444,185.13274 265.36179,181.85849 270.29577,180.1385 C 272.80015,179.26546 274.12527,179.36237 276.75653,180.61098 C 280.93836,182.59539 282.2311,186.04232 282.92262,197.05205 C 283.97802,213.85497 276.45094,233.69698 264.35167,246.00668 L 257.70596,252.76797 L 258.51123,259.14395 C 259.7102,268.63707 258.50722,290.23202 256.20632,300.51996 C 251.67148,320.79639 243.13761,340.1057 231.96819,355.36277 C 228.65598,359.88715 216.30409,373.09502 204.23304,385.01996 C 182.70122,406.29116 176.47496,413.82209 171.57878,424.5168 C 168.46332,431.32181 166.24552,441.77971 166.22332,449.76996 L 166.20596,456.01996 L 307.64694,456.01996 C 400.86224,456.01996 449.29865,456.36092 449.70596,457.01996 C 450.9153,458.97671 456.24219,458.07463 458.8444,455.47242 L 458.84439,455.47241 z"
         transform="translate(-267.6926,489.51905)"
         id="path2421"
         style="fill:#ffffff" />
      <path
         d="M 115.27895,190.86459 C 119.80312,182.3421 132.84738,161.35902 135.49791,158.34023 C 140.89089,152.19796 149.24919,149.5651 155.64086,151.99521 C 157.05168,152.5316 158.20596,153.55433 158.20596,154.26796 C 158.20596,157.38258 150.09598,169.1287 143.18052,176.03013 C 137.47202,181.72702 133.60895,184.55153 127.18052,187.72859 C 122.51951,190.03214 117.65484,192.20765 116.37013,192.56304 C 114.18543,193.16742 114.11483,193.05752 115.27895,190.86459 z"
         transform="translate(-267.6926,489.51905)"
         id="path2423"
         style="fill:#000000" />
      <path
         d="M 53.402748,313.38016 C 53.78437,305.45512 54.41625,302.24038 56.47718,297.73871 C 59.20512,291.78012 63.65432,288.03077 68.00562,288.0237 C 73.633327,288.01454 79.20596,293.63613 79.20596,299.32242 C 79.205957,303.63414 74.89259,308.27383 63.81406,315.87876 L 52.922409,323.35541 L 53.402748,313.38016 z"
         transform="translate(-267.6926,489.51905)"
         id="path2425"
         style="fill:#000000" />
    </g>
  </g>
</svg>
