<?xml version="1.0" encoding="UTF-8" standalone="no"?>
<!-- Created with Inkscape (http://www.inkscape.org/) -->
<svg
   xmlns:svg="http://www.w3.org/2000/svg"
   xmlns="http://www.w3.org/2000/svg"
   version="1.0"
   width="1008"
   height="504"
   id="svg2443">
  <defs
     id="defs2445" />
  <g
     id="layer1">
    <g
       transform="translate(-15.389034,-156.5379)"
       id="g2466">
      <path
         d="M 180.91718,473.60516 C 160.21338,472.1534 140.96995,468.13268 125.52847,462.03224 C 116.18653,458.34154 104.52404,452.33246 103.50597,450.68519 C 103.18589,450.1673 107.21611,439.87545 112.46201,427.81443 C 117.7079,415.75343 122,405.36012 122,404.71823 C 122,403.46307 106.14791,366.7874 103.01481,360.79374 C 101.97455,358.80374 93.0391,347.32941 83.15825,335.29526 L 65.193077,313.41498 L 64.00872,303.79526 C 63.35732,298.50441 58.46398,259.30088 53.13461,216.6763 L 43.444859,139.17706 L 37.74865,138.46555 C 21.30339,136.41131 11.4813,121.78542 16.46687,106.77527 C 18.585801,100.39577 21.825,96.45096 27.8554,92.90592 C 31.799,90.587618 33.63196,90.17553 40,90.17553 C 46.36804,90.175531 48.201,90.58762 52.1446,92.90592 C 58.175,96.450958 61.4142,100.39577 63.53313,106.77527 C 67.151439,117.669 62.44006,129.85285 52.44663,135.44546 C 51.290761,136.09231 58.68831,152.07773 89.13038,214.71562 C 110.10275,257.86857 127.32264,293.25764 127.39678,293.358 C 127.60201,293.63576 138.09834,105.55849 138.04583,102.54425 C 138.00657,100.29092 137.38228,99.75742 133.69951,98.83009 C 127.7289,97.326667 121.65079,92.63951 118.31686,86.96769 C 115.89707,82.85104 115.5,81.10726 115.5,74.59711 C 115.5,67.910273 115.85637,66.43968 118.52914,62.09711 C 128.57861,45.769279 151.42139,45.76928 161.47086,62.09711 C 164.15079,66.451319 164.5,67.90139 164.5,74.67553 C 164.5,81.439711 164.14812,82.90614 161.48172,87.25395 C 159.68029,90.191328 156.43141,93.51716 153.42324,95.50328 L 148.38306,98.831032 L 179.938,190.25328 C 197.29323,240.53552 211.71954,281.67525 211.99648,281.67491 C 212.34354,281.6745 245.13129,95.11856 247.37692,80.36705 C 247.44462,79.92239 245.81159,78.9626 243.74797,78.23419 C 238.23148,76.286998 233.40925,72.22809 230.2723,66.89164 C 227.90133,62.85823 227.5,61.07848 227.5,54.59711 C 227.5,47.910269 227.85637,46.43968 230.52914,42.09711 C 240.57861,25.769279 263.42139,25.76928 273.47086,42.09711 C 276.14363,46.439679 276.5,47.91027 276.5,54.59711 C 276.5,61.078479 276.09868,62.85823 273.7277,66.89164 C 270.59076,72.22809 265.76852,76.287 260.25203,78.23419 C 258.1884,78.962598 256.55538,79.92239 256.62308,80.36705 C 258.86871,95.11856 291.65646,281.67449 292.00352,281.67491 C 292.28047,281.67526 306.70677,240.53552 324.06199,190.25328 L 355.61694,98.831032 L 350.57675,95.503281 C 347.56859,93.51716 344.31971,90.19133 342.51828,87.25395 C 339.85188,82.906138 339.5,81.43971 339.5,74.67553 C 339.5,67.901391 339.84921,66.45132 342.52914,62.09711 C 352.57861,45.769279 375.42139,45.76928 385.47086,62.09711 C 388.14363,66.439679 388.5,67.91027 388.5,74.59711 C 388.5,81.107263 388.10293,82.85104 385.68314,86.96769 C 382.34921,92.63951 376.2711,97.32667 370.30049,98.83009 C 366.61773,99.757417 365.99342,100.29092 365.95417,102.54425 C 365.90167,105.55849 376.39799,293.63576 376.60322,293.358 C 376.67737,293.25764 393.89725,257.86857 414.86962,214.71562 C 445.31168,152.07773 452.70924,136.09232 451.55337,135.44546 C 441.55993,129.85284 436.84856,117.669 440.46687,106.77527 C 442.58581,100.39577 445.825,96.45096 451.8554,92.90592 C 455.79899,90.587618 457.63196,90.17553 464,90.17553 C 470.36804,90.175531 472.201,90.58762 476.1446,92.90592 C 482.17498,96.450958 485.41417,100.39577 487.53317,106.77527 C 492.51867,121.78542 482.69657,136.41131 466.25135,138.46554 L 460.55515,139.17706 L 450.86539,216.6763 C 445.53602,259.30088 440.64268,298.50441 439.99128,303.79526 L 438.80692,313.41498 L 420.84174,335.29526 C 410.9609,347.32941 402.02545,358.80373 400.98519,360.79374 C 397.85208,366.78741 382,403.46307 382,404.71823 C 382,405.36012 386.2921,415.75342 391.53799,427.81443 C 396.78389,439.87546 400.81411,450.16729 400.49403,450.68519 C 398.19973,454.39747 374.15305,464.47229 358.69639,468.19715 C 336.30157,473.59402 331.82284,473.85976 259,474.11274 C 221.875,474.24172 186.73773,474.01329 180.91717,473.60515 L 180.91718,473.60516 z"
         transform="translate(520.30873,156.5379)"
         id="path2611"
         style="fill:#000000" />
      <path
         d="M 130.5036,361.67419 C 147.796,355.19385 164.93991,350.28921 183,346.65566 C 209.36559,341.35111 220.84015,340.29302 252,340.29302 C 283.15985,340.29301 294.63441,341.35112 321,346.65566 C 339.15046,350.30738 356.2157,355.19824 373.80033,361.78808 C 388.76178,367.39487 391.13188,367.47637 393.93605,362.4804 C 396.24835,358.36075 394.48783,354.66593 388.88802,351.88595 C 380.60569,347.77427 356.43256,339.828 339.79396,335.7476 C 306.8085,327.65834 286.3299,325.19742 252,325.19742 C 236.42773,325.19742 221.17014,325.73013 215,326.48925 C 180.5561,330.72691 150.47584,337.98526 122.25662,348.86814 C 111.77743,352.9095 109,355.12516 109,359.44349 C 109,362.10981 113.12469,366.67553 115.53343,366.67553 C 116.42682,366.67552 123.1634,364.42492 130.5036,361.67418 L 130.5036,361.67419 z"
         transform="translate(520.30873,156.5379)"
         id="path2388"
         style="fill:#ffffff" />
      <path
         d="M 154.00249,404.8801 C 173.95274,396.29104 194.6101,390.42685 217,386.99644 C 233.03452,384.53976 270.86949,384.53132 287,386.98084 C 310.33802,390.52488 332.84132,397.16163 355.4091,407.15631 C 365.68269,411.70621 367.75437,412.30852 370.19918,411.45625 C 375.70505,409.5369 376.6959,403.28032 372.10567,399.4179 C 365.18659,393.59588 331.58535,381.09938 310,376.32042 C 287.37605,371.31151 277.11179,370.23449 252,370.23449 C 226.88821,370.23448 216.62395,371.31152 194,376.32042 C 172.41465,381.09937 138.8134,393.59589 131.89433,399.4179 C 127.37377,403.22169 128.10559,408.97554 133.3927,411.1986 C 135.9433,412.27104 137.0137,412.26528 139.49304,411.16573 C 141.14687,410.43228 147.67612,407.60375 154.00248,404.8801 L 154.00249,404.8801 z"
         transform="translate(520.30873,156.5379)"
         id="path2386"
         style="fill:#ffffff" />
      <path
         d="M 121.79966,456.28506 C 126.99236,453.61117 156.60784,443.91402 169,440.82999 C 183.11784,437.31649 199.30278,434.41866 215.5,432.5044 C 229.85087,430.80835 274.14913,430.80834 288.5,432.5044 C 320.35874,436.26962 349.5282,443.44682 377.21026,454.33174 L 385.92053,457.75671 L 390.00897,455.67096 C 394.57758,453.34022 395.5051,451.82413 394.59086,448.18153 C 393.7759,444.93445 388.4142,442.25954 370,435.9134 C 291.80275,408.96403 212.19725,408.96402 134,435.9134 C 115.5858,442.25955 110.22411,444.93444 109.40914,448.18153 C 108.50916,451.76734 109.40732,453.31646 113.69951,455.58154 C 118.30965,458.01441 118.42222,458.02419 121.79966,456.28505 L 121.79966,456.28506 z"
         transform="translate(520.30873,156.5379)"
         id="path2384"
         style="fill:#ffffff" />
    </g>
    <g
       transform="translate(-311.87495,-446.85651)"
       id="g2496">
      <path
         d="M 186.00002,482.89923 C 156.82102,481.36995 128.96552,474.40077 107.6543,463.29788 C 97.239303,457.87179 94.00001,454.9105 94.00001,450.81543 C 94.000012,449.43431 98.27145,438.49751 103.49211,426.51142 L 112.98421,404.71851 L 104.06072,384.23563 L 95.13723,363.75272 L 76.898453,341.4245 C 66.86712,329.14397 58.20135,318.49786 57.64117,317.76648 C 57.080999,317.03509 51.8664,278.4218 46.05318,231.95917 L 35.483681,147.48166 L 28.87129,145.25639 C 20.79136,142.53724 15.72186,138.80105 11.85461,132.71516 C 5.0284596,121.97285 4.37476,110.3712 9.95676,99.03255 C 15.67255,87.422143 26.14037,81.21356 40.00001,81.21356 C 53.859649,81.213558 64.32747,87.42214 70.04326,99.03255 C 76.667911,112.48913 74.71138,124.67715 63.61025,139.10645 C 63.032831,139.85697 72.85935,161.10459 91.60231,199.63294 L 120.48413,259.0029 L 124.67529,186.04959 C 126.98043,145.92526 128.89651,111.64292 128.93323,109.86659 C 128.9901,107.11638 128.4433,106.34995 125.25001,104.70389 C 118.51759,101.23352 113.22321,95.79509 109.79201,88.82532 C 101.38842,71.755223 108.77086,52.40804 127.00001,43.72821 C 138.27983,38.35732 152.12805,40.79492 162.70801,50.01363 C 165.20169,52.18647 168.25716,56.40447 170.20801,60.36722 C 173.0486,66.137268 173.50001,68.08841 173.50001,74.59627 C 173.5,81.104132 173.0486,83.05527 170.20801,88.82532 C 168.27356,92.754753 165.2513,96.93726 162.87914,98.96774 L 158.84225,102.42315 L 183.67114,174.49423 C 197.32702,214.13331 208.74505,246.57227 209.04454,246.58078 C 209.34403,246.5893 215.89791,210.26478 223.60871,165.85962 L 237.62834,85.122971 L 233.33586,82.279747 C 223.77022,75.94373 218.51664,66.12885 218.50657,54.57524 C 218.49483,41.130309 225.91765,29.95739 239.00001,23.72821 C 246.78597,20.02092 257.21404,20.02092 265.00001,23.72821 C 273.15085,27.60924 278.44959,32.73277 282.20801,40.36722 C 285.04946,46.139008 285.49911,48.08356 285.49345,54.57524 C 285.48339,66.128849 280.2298,75.94373 270.66416,82.27975 L 266.37167,85.122971 L 280.3913,165.85962 C 288.10211,210.26478 294.65599,246.5893 294.95548,246.58078 C 295.25498,246.57227 306.673,214.13331 320.32888,174.49423 L 345.15775,102.42315 L 341.12088,98.967743 C 338.74872,96.93726 335.72646,92.75475 333.79201,88.82532 C 325.38841,71.755223 332.77086,52.40804 351.00001,43.72821 C 358.78599,40.02092 369.21404,40.02092 377.00001,43.72821 C 385.15085,47.60924 390.44959,52.73277 394.20801,60.36722 C 397.0486,66.137268 397.50001,68.08841 397.50001,74.59627 C 397.50002,81.104132 397.0486,83.05527 394.20801,88.82532 C 390.77681,95.795093 385.48243,101.23352 378.75001,104.70389 C 375.55673,106.34995 375.00992,107.11638 375.06679,109.86659 C 375.1035,111.64292 377.01959,145.92526 379.32473,186.04959 L 383.5159,259.0029 L 412.39771,199.63293 C 431.14067,161.10459 440.96719,139.85697 440.38977,139.10645 C 429.28864,124.67715 427.33211,112.48913 433.95676,99.03255 C 439.67255,87.422143 450.14037,81.21356 464.00001,81.21356 C 477.85966,81.213558 488.32747,87.42214 494.04326,99.03255 C 499.62525,110.3712 498.97156,121.97285 492.14541,132.71516 C 488.27815,138.80105 483.20866,142.53724 475.12873,145.25639 L 468.51633,147.48166 L 457.94684,231.95917 C 452.13362,278.4218 446.91902,317.03509 446.35885,317.76648 C 445.79866,318.49786 437.1329,329.14397 427.10157,341.42449 L 408.86279,363.75272 L 399.9393,384.23563 L 391.01581,404.71851 L 400.5079,426.51141 C 405.72857,438.49751 410.00001,449.43431 410.00001,450.81543 C 410.00002,454.9105 406.76072,457.87179 396.34572,463.29788 C 379.83153,471.90157 359.73999,477.99278 337.05738,481.27249 C 328.54094,482.50389 313.45111,482.83654 259.00001,482.99324 C 221.87502,483.1001 189.02501,483.05778 186.00001,482.89924 L 186.00002,482.89923 z"
         transform="translate(319.91772,446.85651)"
         id="path2396"
         style="fill:#000000" />
      <path
         d="M 260.07834,68.322472 C 265.26111,64.8298 268.00001,60.084 268.00001,54.59627 C 268.00002,42.389538 253.73445,34.25725 243.92169,40.87007 C 238.73891,44.362739 236.00001,49.10854 236.00001,54.59627 C 236,66.802998 250.26557,74.93529 260.07833,68.32247 L 260.07834,68.322472 z"
         transform="translate(319.91772,446.85651)"
         id="path2411"
         style="fill:#ffffff" />
      <path
         d="M 372.07834,88.322472 C 377.26111,84.8298 380.00001,80.084 380.00001,74.59627 C 380.00002,69.108542 377.26111,64.36274 372.07833,60.87007 C 362.26556,54.257249 348.00001,62.38954 348.00001,74.59627 C 348.00002,86.803002 362.26557,94.93529 372.07833,88.32247 L 372.07834,88.322472 z"
         transform="translate(319.91772,446.85651)"
         id="path2409"
         style="fill:#ffffff" />
      <path
         d="M 148.07832,88.322472 C 158.71832,81.15218 158.71832,68.04036 148.07833,60.87007 C 138.26558,54.257249 124.00001,62.38954 124.00001,74.59627 C 124.00001,86.803002 138.26557,94.93529 148.07833,88.32247 L 148.07832,88.322472 z"
         transform="translate(319.91772,446.85651)"
         id="path2407"
         style="fill:#ffffff" />
      <path
         d="M 471.98007,127.84472 C 477.15516,125.24466 480.00001,120.36778 480.00001,114.09627 C 480.00002,104.86913 473.52671,98.59938 464.00001,98.59938 C 454.47332,98.59938 448.00001,104.86913 448.00001,114.09627 C 448.00002,123.32341 454.47331,129.59316 464.00001,129.59316 C 466.47502,129.59317 470.06604,128.80636 471.98008,127.84472 L 471.98007,127.84472 z"
         transform="translate(319.91772,446.85651)"
         id="path2405"
         style="fill:#ffffff" />
      <path
         d="M 47.98008,127.84472 C 58.80139,122.4079 58.80139,105.78464 47.98008,100.34782 C 43.5282,98.111124 36.47182,98.11112 32.01994,100.34782 C 21.198631,105.78464 21.19863,122.4079 32.01994,127.84472 C 33.933981,128.80636 37.52501,129.59316 40.00001,129.59316 C 42.475009,129.59317 46.06604,128.80636 47.98008,127.84472 z"
         transform="translate(319.91772,446.85651)"
         id="path2403"
         style="fill:#ffffff" />
      <path
         d="M 230.91696,268.00552 C 234.53764,266.03062 239.52501,262.72825 242.00001,260.66691 C 250.9658,253.19965 253.33375,253.1088 261.13465,259.93283 C 265.58427,263.82524 279.72613,272.26625 280.43101,271.45045 C 280.903,270.9042 252.56746,108.60402 252.00001,108.60346 C 251.725,108.60319 245.24651,144.71396 237.60334,188.84962 C 229.96019,232.98528 223.49953,269.65877 223.24636,270.34627 C 222.53679,272.27309 223.79947,271.88779 230.91696,268.00553 L 230.91696,268.00552 z"
         transform="translate(319.91772,446.85651)"
         id="path2401"
         style="fill:#ffffff" />
      <path
         d="M 366.52866,274.84628 C 366.2028,271.13377 364.15152,235.92127 361.97026,196.59627 C 359.78901,157.27127 357.89086,123.90732 357.75217,122.45417 C 357.6059,120.92159 346.41306,151.99693 331.09856,196.45417 C 316.57775,238.60733 304.46462,273.73042 304.18047,274.50549 C 303.32067,276.85073 317.16355,275.00322 326.97221,271.46364 C 339.48131,266.94957 341.30984,266.83002 345.75475,270.23563 C 349.46669,273.07966 364.76212,281.5113 366.31056,281.56707 C 366.75638,281.58312 366.85451,278.55877 366.52865,274.84627 L 366.52866,274.84628 z"
         transform="translate(319.91772,446.85651)"
         id="path2399"
         style="fill:#ffffff" />
      <path
         d="M 145.27496,277.9758 C 149.24874,275.98456 154.65033,272.78682 157.2785,270.86973 C 162.88676,266.77884 164.15093,266.81685 177.02781,271.46364 C 186.83646,275.00321 200.67934,276.85073 199.81955,274.50549 C 199.5354,273.73042 187.42226,238.60732 172.90146,196.45417 C 157.58696,151.99694 146.39412,120.92159 146.24785,122.45417 C 146.10916,123.90732 144.21102,157.27127 142.02976,196.59627 C 139.84851,235.92127 137.79722,271.13377 137.47137,274.84627 C 137.14551,278.55876 137.14239,281.59627 137.46442,281.59627 C 137.78646,281.59626 141.3012,279.96706 145.27497,277.97581 L 145.27496,277.9758 z"
         transform="translate(319.91772,446.85651)"
         id="path2397"
         style="fill:#ffffff" />
      <path
         d="M 439.93741,232.09686 C 444.33775,196.95411 447.80625,168.06918 447.6452,167.90813 C 447.39327,167.6562 391.72933,281.6383 390.21468,285.50762 C 389.74839,286.69877 391.28772,286.79191 400.08111,286.10457 C 417.81209,284.71859 416.81102,284.52602 424.55146,290.81188 C 428.36557,293.90922 431.58758,296.34203 431.71151,296.21811 C 431.83542,296.09418 435.5371,267.23962 439.93742,232.09687 L 439.93741,232.09686 z"
         transform="translate(319.91772,446.85651)"
         id="path2394"
         style="fill:#ffffff" />
      <path
         d="M 86.550072,285.77475 C 88.53614,284.73351 90.5356,284.68049 95.97695,285.52474 C 105.68202,287.03052 114.3502,286.94336 113.72343,285.34627 C 112.2351,281.55385 56.59946,167.66349 56.35474,167.90821 C 56.19364,168.06932 59.64249,196.75253 64.01884,231.64869 C 68.395203,266.54485 71.98129,295.46363 71.98793,295.91262 C 71.99458,296.3616 74.70661,294.56161 78.01468,291.91262 C 81.322741,289.26362 85.16367,286.50158 86.55007,285.77474 L 86.550072,285.77475 z"
         transform="translate(319.91772,446.85651)"
         id="path2392"
         style="fill:#ffffff" />
      <path
         d="M 113.07486,346.04248 C 203.23387,315.0335 300.7703,315.03572 390.9437,346.04879 C 395.03774,347.45683 398.70838,348.26854 399.10068,347.85258 C 401.52699,345.27994 425.9509,315.00458 425.92941,314.59627 C 425.91493,314.32126 422.70324,311.58813 418.79231,308.52263 L 411.68152,302.94901 L 406.09076,303.86786 C 388.74948,306.71801 363.24383,301.11777 344.70856,290.39027 L 337.91711,286.45963 L 330.20856,288.98962 C 305.03641,297.2513 279.76996,293.74674 257.25001,278.86997 L 252.00002,275.40179 L 246.75002,278.86996 C 233.99725,287.29449 219.30799,292.29714 204.45085,293.27558 C 194.09573,293.95755 185.09379,292.69913 173.79146,288.98963 L 166.08292,286.45963 L 159.29146,290.39026 C 140.75619,301.11777 115.25054,306.71801 97.90925,303.86786 L 92.318497,302.94901 L 85.211472,308.52264 C 81.30261,311.58813 78.19345,314.41454 78.30223,314.80354 C 78.472809,315.41356 105.21045,348.59627 105.5314,348.59627 C 105.59647,348.59626 108.99102,347.44707 113.07486,346.04249 L 113.07486,346.04248 z"
         transform="translate(319.91772,446.85651)"
         id="path2390"
         style="fill:#ffffff" />
      <path
         d="M 151.19949,384.75821 C 217.38045,363.33681 286.61957,363.33681 352.80053,384.7582 C 361.21581,387.48204 370.06725,390.55347 372.47037,391.58356 C 375.6364,392.94068 376.97697,393.13148 377.3382,392.27637 C 377.61239,391.62731 380.51518,384.96638 383.78885,377.4743 L 389.74097,363.85233 L 386.12048,362.69427 C 319.14632,341.27187 260.34025,335.73909 194.50001,344.66563 C 169.67222,348.03176 147.15734,353.32946 117.87953,362.69428 L 114.25905,363.85233 L 120.21117,377.4743 C 123.48484,384.96638 126.38763,391.62731 126.66182,392.27637 C 127.02305,393.13148 128.36362,392.94068 131.52965,391.58356 C 133.93277,390.55347 142.7842,387.48205 151.19949,384.7582 L 151.19949,384.75821 z"
         transform="translate(319.91772,446.85651)"
         id="path2510"
         style="fill:#ffffff" />
      <path
         d="M 151.50002,426.08273 C 171.05106,421.25491 192.35881,417.50658 212.00001,415.43993 C 228.28597,413.7263 275.71404,413.72631 292.00001,415.43993 C 319.31953,418.31449 357.82434,426.20064 377.75001,433.00232 C 381.73752,434.36346 385.00001,435.29559 385.00001,435.07371 C 385.00002,434.85185 382.80863,429.59115 380.13027,423.38329 C 374.33534,409.95189 375.26367,410.60134 349.77549,402.14747 C 332.43098,396.39469 312.50966,391.91254 291.00001,388.92346 C 273.47396,386.48795 230.52607,386.48795 213.00001,388.92346 C 191.49035,391.91254 171.56905,396.39468 154.22453,402.14747 C 128.73635,410.60135 129.66467,409.9519 123.86975,423.38329 C 121.19139,429.59114 119.00001,434.85184 119.00001,435.07371 C 119.00001,435.2956 122.26251,434.36346 126.25001,433.00232 C 130.23751,431.64117 141.60001,428.52735 151.50001,426.08272 L 151.50002,426.08273 z"
         transform="translate(319.91772,446.85651)"
         id="path2512"
         style="fill:#ffffff" />
      <path
         d="M 337,463.27875 C 350.85528,461.27273 359.50438,459.25623 370.86511,455.38324 L 380.23022,452.19058 L 373.36511,449.86456 C 362.1705,446.0716 335.58314,439.82021 319.50001,437.19945 C 294.5985,433.14171 281.07065,432.12467 252.00001,432.12467 C 222.92936,432.12468 209.40153,433.14172 184.50001,437.19945 C 168.41687,439.8202 141.82952,446.0716 130.63491,449.86455 L 123.76981,452.19058 L 133.1349,455.40036 C 148.2825,460.59205 166.59304,463.88211 186.00001,464.89924 C 189.025,465.05779 221.87501,465.10009 259.00001,464.99324 C 313.33395,464.83689 328.54807,464.50246 337.00001,463.27876 L 337,463.27875 z"
         transform="translate(319.91772,446.85651)"
         id="path2514"
         style="fill:#ffffff" />
    </g>
  </g>
</svg>
